<svg width="570" height="290" viewBox="0 0 570 290" fill="none" xmlns="http://www.w3.org/2000/svg">
<path d="M467.586 220.511L569.664 147.245L469.232 73.9793V106.085L526.034 147.245L467.586 189.229V220.511Z" fill="#222222"/>
<path d="M429.718 44.3435C426.425 -0.439327 384.441 -2.85409 363.861 1.53639V27.8792C382.795 28.7024 400.906 22.1167 400.082 60.8077C397.613 120.079 402.552 125.842 426.425 145.599C417.644 151.91 400.082 168.649 400.082 185.113V245.208C399.259 256.733 386.088 264.965 365.507 262.495L364.684 288.015C386.911 290.485 426.425 292.46 429.718 247.677C433.834 191.699 419.839 170.295 456.884 157.124V134.897C419.016 116.786 433.834 100.322 429.718 44.3435Z" fill="#222222"/>
<path d="M243.673 203.937C243.673 227.791 219.526 231.926 209.098 231.103V206.406C209.098 206.406 215.684 206.406 216.507 201.467C216.507 201.467 217.056 121.341 216.507 83.7474H209.921V57.4046H243.673L284.834 114.206L325.995 57.4043H359.746V83.7472H353.161C352.612 121.341 353.161 201.467 353.161 201.467C353.984 206.406 360.57 206.406 360.57 206.406V231.103C350.142 231.926 325.995 227.791 325.995 203.936V102.681L284.834 163.599L243.673 102.681V203.937Z" fill="#222222"/>
<path d="M102.079 220.511L0 147.245L100.432 73.9793V106.085L43.6304 147.245L102.079 189.229V220.511Z" fill="#222222"/>
<path d="M139.946 44.3435C143.239 -0.439327 185.223 -2.85409 205.804 1.53639V27.8792C186.87 28.7024 168.759 22.1167 169.582 60.8077C172.052 120.079 167.113 125.842 143.239 145.599C152.02 151.91 169.582 168.649 169.582 185.113V245.208C170.405 256.733 183.577 264.965 204.157 262.495L204.98 288.015C182.754 290.485 143.239 292.46 139.946 247.677C135.83 191.699 149.825 170.295 112.78 157.124V134.897C150.648 116.786 135.83 100.322 139.946 44.3435Z" fill="#222222"/>
</svg>
